<?xml version="1.0" encoding="UTF-8" standalone="no"?>
<!DOCTYPE svg PUBLIC "-//W3C//DTD SVG 1.1//EN" "http://www.w3.org/Graphics/SVG/1.1/DTD/svg11.dtd">
<svg width="100%" height="100%" viewBox="0 0 800 800" version="1.1" xmlns="http://www.w3.org/2000/svg" xmlns:xlink="http://www.w3.org/1999/xlink" xml:space="preserve" xmlns:serif="http://www.serif.com/" style="fill-rule:evenodd;clip-rule:evenodd;stroke-linejoin:round;stroke-miterlimit:2;">
    <g transform="matrix(1.88257,-1.86684,1.86684,1.88257,-998.574,207.436)">
        <g transform="matrix(2.18923,2.18923,-2.18923,2.18923,407.315,144.851)">
            <path d="M34.282,93.718C32.895,92.331 28.141,89.146 18.675,98.612C9.208,108.078 0,128 0,128C0,128 19.922,118.791 29.389,109.324C38.855,99.858 35.669,95.104 34.282,93.718ZM16.427,111.573C16.427,111.573 20.602,102.397 24.943,98.057C29.282,93.719 31.558,95.278 32.14,95.86C32.723,96.442 34.282,98.718 29.942,103.057C25.602,107.397 16.427,111.573 16.427,111.573Z" style="fill:rgb(199,199,199);fill-rule:nonzero;"/>
        </g>
        <g transform="matrix(2.18923,2.18923,-2.18923,2.18923,402.877,144.851)">
            <path d="M34.996,80.147L30.08,83.812C29.64,84.156 29.602,84.752 29.997,85.147L42.853,98.002C43.248,98.397 43.845,98.358 44.187,97.919L47.853,93.003L34.996,80.147Z" style="fill:rgb(145,208,212);fill-rule:nonzero;"/>
        </g>
        <g transform="matrix(0.150448,0,-5.4591e-17,0.388286,206.791,279.534)">
            <path d="M1407.48,447.38C1258.95,447.385 694.811,447.38 694.811,447.38L694.811,302.411C694.811,302.411 1258.95,302.417 1407.48,302.422L1407.48,447.38Z" style="fill:rgb(35,174,182);"/>
        </g>
        <g transform="matrix(2.18923,2.18923,-2.18923,2.18923,236.017,144.438)">
            <path d="M127.973,0.793C128.104,0.251 127.749,-0.103 127.207,0.027C123.647,0.885 111.144,4.463 101.072,14.111L113.888,26.927C123.538,16.856 127.115,4.352 127.973,0.793Z" style="fill:rgb(145,208,212);fill-rule:nonzero;"/>
        </g>
        <g transform="matrix(2.18923,2.18923,-2.18923,2.18923,354.786,144.851)">
            <path d="M37.139,58.008L28.568,66.578C28.173,66.974 28.117,67.66 28.441,68.114L34.996,77.291L54.994,57.293L38.863,57.293C38.305,57.293 37.534,57.613 37.139,58.008Z" style="fill:rgb(145,208,212);fill-rule:nonzero;"/>
        </g>
        <g transform="matrix(2.18923,2.18923,-2.18923,2.18923,354.786,144.851)">
            <path d="M70.706,89.137L70.706,73.006L50.708,93.004L59.885,99.559C60.34,99.883 61.026,99.827 61.421,99.431L69.991,90.862C70.387,90.467 70.706,89.695 70.706,89.137Z" style="fill:rgb(145,208,212);fill-rule:nonzero;"/>
        </g>
    </g>
</svg>
