<?xml version="1.0" encoding="UTF-8" standalone="no"?>
<!DOCTYPE svg PUBLIC "-//W3C//DTD SVG 1.1//EN" "http://www.w3.org/Graphics/SVG/1.1/DTD/svg11.dtd">
<svg width="100%" height="100%" viewBox="0 0 1418 378" version="1.1" xmlns="http://www.w3.org/2000/svg" xmlns:xlink="http://www.w3.org/1999/xlink" xml:space="preserve" xmlns:serif="http://www.serif.com/" style="fill-rule:evenodd;clip-rule:evenodd;stroke-linejoin:round;stroke-miterlimit:2;">
    <g transform="matrix(1,0,0,1,-91.2765,-2179.91)">
        <g transform="matrix(1.13196,0,-0.446337,1.13196,2385.94,103.466)">
            <g transform="matrix(1,0,-3.88578e-16,1,-1579.74,116.225)">
                <g transform="matrix(6.94492,4.98092,-3.01691,4.98092,728.925,1250.21)">
                    <path d="M34.282,93.718C32.895,92.331 28.141,89.146 18.675,98.612C9.208,108.078 0,128 0,128C0,128 19.922,118.791 29.389,109.324C38.855,99.858 35.669,95.104 34.282,93.718ZM16.427,111.573C16.427,111.573 20.602,102.397 24.943,98.057C29.282,93.719 31.558,95.278 32.14,95.86C32.723,96.442 34.282,98.718 29.942,103.057C25.602,107.397 16.427,111.573 16.427,111.573Z" style="fill:rgb(199,199,199);fill-rule:nonzero;"/>
                </g>
                <g transform="matrix(6.94492,4.98092,-3.01691,4.98092,718.828,1250.21)">
                    <path d="M34.996,80.147L30.08,83.812C29.64,84.156 29.602,84.752 29.997,85.147L42.853,98.002C43.248,98.397 43.845,98.358 44.187,97.919L47.853,93.003L34.996,80.147Z" style="fill:rgb(145,208,212);fill-rule:nonzero;"/>
                </g>
                <g transform="matrix(0.870167,0,0.348341,0.883427,26.7528,1556.64)">
                    <path d="M1407.48,447.38C1258.95,447.385 694.811,447.38 694.811,447.38L694.811,302.411C694.811,302.411 1258.95,302.417 1407.48,302.422L1407.48,447.38Z" style="fill:rgb(35,174,182);"/>
                </g>
                <g transform="matrix(6.94492,4.98092,-3.01691,4.98092,707.786,1250.21)">
                    <path d="M127.973,0.793C128.104,0.251 127.749,-0.103 127.207,0.027C123.647,0.885 111.144,4.463 101.072,14.111L113.888,26.927C123.538,16.856 127.115,4.352 127.973,0.793Z" style="fill:rgb(145,208,212);fill-rule:nonzero;"/>
                </g>
                <g transform="matrix(6.94492,4.98092,-3.01691,4.98092,609.412,1250.21)">
                    <path d="M37.139,58.008L28.568,66.578C28.173,66.974 28.117,67.66 28.441,68.114L34.996,77.291L54.994,57.293L38.863,57.293C38.305,57.293 37.534,57.613 37.139,58.008Z" style="fill:rgb(145,208,212);fill-rule:nonzero;"/>
                </g>
                <g transform="matrix(6.94492,4.98092,-3.01691,4.98092,609.412,1250.21)">
                    <path d="M70.706,89.137L70.706,73.006L50.708,93.004L59.885,99.559C60.34,99.883 61.026,99.827 61.421,99.431L69.991,90.862C70.387,90.467 70.706,89.695 70.706,89.137Z" style="fill:rgb(145,208,212);fill-rule:nonzero;"/>
                </g>
                <g transform="matrix(1,0,-3.33067e-16,1,326.201,1647.98)">
                    <path d="M477.375,191.698L514.959,191.698C519.759,191.698 524.151,192.25 528.135,193.354C532.119,194.458 535.527,196.09 538.359,198.25C541.191,200.41 543.399,203.098 544.983,206.314C546.567,209.53 547.359,213.298 547.359,217.618C547.359,220.69 546.975,223.306 546.207,225.466C545.439,227.626 544.623,229.426 543.759,230.866C542.703,232.594 541.503,234.034 540.159,235.186C542.271,236.53 544.191,238.258 545.919,240.37C547.359,242.194 548.679,244.498 549.879,247.282C551.079,250.066 551.679,253.474 551.679,257.506C551.679,262.114 550.863,266.29 549.231,270.034C547.599,273.778 545.271,276.97 542.247,279.61C539.223,282.25 535.527,284.266 531.159,285.658C526.791,287.05 521.919,287.746 516.543,287.746L477.375,287.746L477.375,191.698ZM510.495,265.138C517.791,265.138 521.439,262.354 521.439,256.786C521.439,251.218 517.791,248.434 510.495,248.434L507.039,248.434L507.039,265.138L510.495,265.138ZM517.695,220.93C517.695,216.514 515.295,214.306 510.495,214.306L507.039,214.306L507.039,227.554L510.495,227.554C515.295,227.554 517.695,225.346 517.695,220.93Z" style="fill:white;fill-rule:nonzero;"/>
                </g>
                <g transform="matrix(1,0,-3.33067e-16,1,326.201,1647.98)">
                    <path d="M555.279,239.794C555.279,232.882 556.599,226.354 559.239,220.21C561.879,214.066 565.479,208.714 570.039,204.154C574.599,199.594 579.951,195.994 586.095,193.354C592.239,190.714 598.767,189.394 605.679,189.394C612.591,189.394 619.119,190.714 625.263,193.354C631.407,195.994 636.759,199.594 641.319,204.154C645.879,208.714 649.479,214.066 652.119,220.21C654.759,226.354 656.079,232.882 656.079,239.794C656.079,246.706 654.759,253.234 652.119,259.378C649.479,265.522 645.879,270.874 641.319,275.434C636.759,279.994 631.407,283.594 625.263,286.234C619.119,288.874 612.591,290.194 605.679,290.194C598.767,290.194 592.239,288.874 586.095,286.234C579.951,283.594 574.599,279.994 570.039,275.434C565.479,270.874 561.879,265.522 559.239,259.378C556.599,253.234 555.279,246.706 555.279,239.794ZM585.519,239.794C585.519,242.578 586.047,245.194 587.103,247.642C588.159,250.09 589.599,252.226 591.423,254.05C593.247,255.874 595.383,257.314 597.831,258.37C600.279,259.426 602.895,259.954 605.679,259.954C608.463,259.954 611.079,259.426 613.527,258.37C615.975,257.314 618.111,255.874 619.935,254.05C621.759,252.226 623.199,250.09 624.255,247.642C625.311,245.194 625.839,242.578 625.839,239.794C625.839,237.01 625.311,234.394 624.255,231.946C623.199,229.498 621.759,227.362 619.935,225.538C618.111,223.714 615.975,222.274 613.527,221.218C611.079,220.162 608.463,219.634 605.679,219.634C602.895,219.634 600.279,220.162 597.831,221.218C595.383,222.274 593.247,223.714 591.423,225.538C589.599,227.362 588.159,229.498 587.103,231.946C586.047,234.394 585.519,237.01 585.519,239.794Z" style="fill:white;fill-rule:nonzero;"/>
                </g>
                <g transform="matrix(1,0,-3.33067e-16,1,326.201,1647.98)">
                    <path d="M661.839,239.794C661.839,232.882 663.159,226.354 665.799,220.21C668.439,214.066 672.039,208.714 676.599,204.154C681.159,199.594 686.511,195.994 692.655,193.354C698.799,190.714 705.327,189.394 712.239,189.394C719.151,189.394 725.679,190.714 731.823,193.354C737.967,195.994 743.319,199.594 747.879,204.154C752.439,208.714 756.039,214.066 758.679,220.21C761.319,226.354 762.639,232.882 762.639,239.794C762.639,246.706 761.319,253.234 758.679,259.378C756.039,265.522 752.439,270.874 747.879,275.434C743.319,279.994 737.967,283.594 731.823,286.234C725.679,288.874 719.151,290.194 712.239,290.194C705.327,290.194 698.799,288.874 692.655,286.234C686.511,283.594 681.159,279.994 676.599,275.434C672.039,270.874 668.439,265.522 665.799,259.378C663.159,253.234 661.839,246.706 661.839,239.794ZM692.079,239.794C692.079,242.578 692.607,245.194 693.663,247.642C694.719,250.09 696.159,252.226 697.983,254.05C699.807,255.874 701.943,257.314 704.391,258.37C706.839,259.426 709.455,259.954 712.239,259.954C715.023,259.954 717.639,259.426 720.087,258.37C722.535,257.314 724.671,255.874 726.495,254.05C728.319,252.226 729.759,250.09 730.815,247.642C731.871,245.194 732.399,242.578 732.399,239.794C732.399,237.01 731.871,234.394 730.815,231.946C729.759,229.498 728.319,227.362 726.495,225.538C724.671,223.714 722.535,222.274 720.087,221.218C717.639,220.162 715.023,219.634 712.239,219.634C709.455,219.634 706.839,220.162 704.391,221.218C701.943,222.274 699.807,223.714 697.983,225.538C696.159,227.362 694.719,229.498 693.663,231.946C692.607,234.394 692.079,237.01 692.079,239.794Z" style="fill:white;fill-rule:nonzero;"/>
                </g>
                <g transform="matrix(1,0,-3.33067e-16,1,326.201,1647.98)">
                    <path d="M765.087,257.938C767.199,258.61 769.407,259.138 771.711,259.522C773.631,260.002 775.815,260.386 778.263,260.674C780.711,260.962 783.183,261.106 785.679,261.106C790.095,261.106 792.303,259.474 792.303,256.21C792.303,254.962 791.631,253.69 790.287,252.394C788.943,251.098 787.239,249.658 785.175,248.074C783.111,246.49 780.903,244.738 778.551,242.818C776.199,240.898 773.991,238.69 771.927,236.194C769.863,233.698 768.159,230.89 766.815,227.77C765.471,224.65 764.799,221.074 764.799,217.042C764.799,212.53 765.615,208.546 767.247,205.09C768.879,201.634 771.135,198.754 774.015,196.45C776.895,194.146 780.279,192.394 784.167,191.194C788.055,189.994 792.207,189.394 796.623,189.394C798.927,189.394 801.231,189.514 803.535,189.754C805.839,189.994 807.903,190.21 809.727,190.402C811.839,190.69 813.903,190.978 815.919,191.266L815.919,218.194C815.151,218.098 814.287,218.002 813.327,217.906C812.559,217.81 811.695,217.714 810.735,217.618C809.775,217.522 808.767,217.474 807.711,217.474C807.135,217.474 806.415,217.498 805.551,217.546C804.687,217.594 803.871,217.714 803.103,217.906C802.335,218.098 801.663,218.434 801.087,218.914C800.511,219.394 800.223,220.066 800.223,220.93C800.223,221.698 800.871,222.658 802.167,223.81C803.463,224.962 805.047,226.306 806.919,227.842C808.791,229.378 810.855,231.154 813.111,233.17C815.367,235.186 817.431,237.49 819.303,240.082C821.175,242.674 822.759,245.602 824.055,248.866C825.351,252.13 825.999,255.778 825.999,259.81C825.999,264.034 825.327,267.994 823.983,271.69C822.639,275.386 820.551,278.602 817.719,281.338C814.887,284.074 811.263,286.234 806.847,287.818C802.431,289.402 797.199,290.194 791.151,290.194C787.503,290.194 784.119,290.026 780.999,289.69C777.879,289.354 775.119,288.946 772.719,288.466C769.935,287.986 767.391,287.41 765.087,286.738L765.087,257.938Z" style="fill:white;fill-rule:nonzero;"/>
                </g>
                <g transform="matrix(1,0,-3.33067e-16,1,326.201,1647.98)">
                    <path d="M838.671,216.898L820.959,216.898L820.959,191.698L888.063,191.698L888.063,216.898L870.351,216.898L870.351,287.746L838.671,287.746L838.671,216.898Z" style="fill:white;fill-rule:nonzero;"/>
                </g>
                <g transform="matrix(1,0,-3.33067e-16,1,326.201,1647.98)">
                    <path d="M893.103,191.698L949.695,191.698L949.695,216.898L923.775,216.898L923.775,227.554L949.263,227.554L949.263,251.458L923.775,251.458L923.775,262.546L950.703,262.546L950.703,287.746L893.103,287.746L893.103,191.698Z" style="fill:white;fill-rule:nonzero;"/>
                </g>
                <g transform="matrix(1,0,-3.33067e-16,1,326.201,1647.98)">
                    <path d="M959.343,191.698L992.463,191.698C998.607,191.698 1004.3,192.514 1009.53,194.146C1014.76,195.778 1019.3,198.178 1023.13,201.346C1026.97,204.514 1029.97,208.426 1032.13,213.082C1034.3,217.738 1035.38,223.09 1035.38,229.138C1035.38,233.938 1034.7,238.018 1033.36,241.378C1032.02,244.738 1030.53,247.522 1028.89,249.73C1026.97,252.226 1024.82,254.338 1022.42,256.066L1040.41,287.746L1004.42,287.746L990.015,263.41L990.015,287.746L959.343,287.746L959.343,191.698ZM990.015,238.93L991.599,238.93C995.247,238.93 998.343,238.114 1000.89,236.482C1003.43,234.85 1004.7,232.114 1004.7,228.274C1004.7,224.434 1003.43,221.698 1000.89,220.066C998.343,218.434 995.247,217.618 991.599,217.618L990.015,217.618L990.015,238.93Z" style="fill:white;fill-rule:nonzero;"/>
                </g>
                <g transform="matrix(1,0,-0.00993536,1,341.031,-124.189)">
                    <g transform="matrix(0.883427,0,-0.0113826,0.883427,148.75,1596.48)">
                        <path d="M421.045,380.844L421.045,278.316L443.077,278.316C447.109,278.316 450.661,278.844 453.733,279.9C456.805,280.956 459.589,282.828 462.085,285.516C464.581,288.204 466.309,291.348 467.269,294.948C468.229,298.548 468.709,303.42 468.709,309.564C468.709,314.172 468.445,318.06 467.917,321.228C467.389,324.396 466.261,327.372 464.533,330.156C462.517,333.516 459.829,336.132 456.469,338.004C453.109,339.876 448.693,340.812 443.221,340.812L435.733,340.812L435.733,380.844L421.045,380.844ZM435.733,292.14L435.733,326.988L442.789,326.988C445.765,326.988 448.069,326.556 449.701,325.692C451.333,324.828 452.533,323.628 453.301,322.092C454.069,320.652 454.525,318.876 454.669,316.764C454.813,314.652 454.885,312.3 454.885,309.708C454.885,307.308 454.837,305.028 454.741,302.868C454.645,300.708 454.213,298.812 453.445,297.18C452.677,295.548 451.525,294.3 449.989,293.436C448.453,292.572 446.245,292.14 443.365,292.14L435.733,292.14Z" style="fill:rgb(150,150,150);fill-rule:nonzero;"/>
                    </g>
                    <g transform="matrix(0.883427,0,-0.0113826,0.883427,148.75,1596.48)">
                        <path d="M478.789,380.844L478.789,307.836L493.477,307.836L493.477,315.612C496.453,312.924 499.381,310.812 502.261,309.276C505.141,307.74 508.693,306.972 512.917,306.972L512.917,322.524C511.477,321.948 509.989,321.66 508.453,321.66C506.917,321.66 505.261,321.924 503.485,322.452C501.709,322.98 500.101,323.868 498.661,325.116C497.125,326.364 495.877,327.996 494.917,330.012C493.957,332.028 493.477,334.524 493.477,337.5L493.477,380.844L478.789,380.844Z" style="fill:rgb(150,150,150);fill-rule:nonzero;"/>
                    </g>
                    <g transform="matrix(0.883427,0,-0.0113826,0.883427,148.75,1596.48)">
                        <path d="M516.661,332.316C516.661,329.34 516.853,326.604 517.237,324.108C517.621,321.612 518.341,319.404 519.397,317.484C521.125,314.316 523.597,311.772 526.813,309.852C530.029,307.932 533.941,306.972 538.549,306.972C543.157,306.972 547.069,307.932 550.285,309.852C553.501,311.772 555.973,314.316 557.701,317.484C558.757,319.404 559.477,321.612 559.861,324.108C560.245,326.604 560.437,329.34 560.437,332.316L560.437,356.364C560.437,359.34 560.245,362.076 559.861,364.572C559.477,367.068 558.757,369.276 557.701,371.196C555.973,374.364 553.501,376.908 550.285,378.828C547.069,380.748 543.157,381.708 538.549,381.708C533.941,381.708 530.029,380.748 526.813,378.828C523.597,376.908 521.125,374.364 519.397,371.196C518.341,369.276 517.621,367.068 517.237,364.572C516.853,362.076 516.661,359.34 516.661,356.364L516.661,332.316ZM531.349,358.668C531.349,361.452 531.997,363.54 533.293,364.932C534.589,366.324 536.341,367.02 538.549,367.02C540.757,367.02 542.509,366.324 543.805,364.932C545.101,363.54 545.749,361.452 545.749,358.668L545.749,330.012C545.749,327.228 545.101,325.14 543.805,323.748C542.509,322.356 540.757,321.66 538.549,321.66C536.341,321.66 534.589,322.356 533.293,323.748C531.997,325.14 531.349,327.228 531.349,330.012L531.349,358.668Z" style="fill:rgb(150,150,150);fill-rule:nonzero;"/>
                    </g>
                    <g transform="matrix(0.883427,0,-0.0113826,0.883427,148.75,1596.48)">
                        <path d="M571.237,307.836L571.237,285.66L585.925,285.66L585.925,307.836L594.997,307.836L594.997,319.356L585.925,319.356L585.925,359.82C585.925,361.548 586.093,362.892 586.429,363.852C586.765,364.812 587.317,365.532 588.085,366.012C588.853,366.492 589.789,366.78 590.893,366.876C591.997,366.972 593.365,367.02 594.997,367.02L594.997,380.844L588.949,380.844C585.589,380.844 582.781,380.316 580.525,379.26C578.269,378.204 576.469,376.86 575.125,375.228C573.781,373.596 572.797,371.748 572.173,369.684C571.549,367.62 571.237,365.628 571.237,363.708L571.237,319.356L563.893,319.356L563.893,307.836L571.237,307.836Z" style="fill:rgb(150,150,150);fill-rule:nonzero;"/>
                    </g>
                    <g transform="matrix(0.883427,0,-0.0113826,0.883427,148.75,1596.48)">
                        <path d="M643.093,349.884L614.005,349.884L614.005,359.82C614.005,362.124 614.653,363.9 615.949,365.148C617.245,366.396 618.997,367.02 621.205,367.02C623.989,367.02 625.837,366.204 626.749,364.572C627.661,362.94 628.213,361.308 628.405,359.676L643.093,359.676C643.093,366.108 641.125,371.292 637.189,375.228C635.269,377.244 632.965,378.828 630.277,379.98C627.589,381.132 624.565,381.708 621.205,381.708C616.597,381.708 612.685,380.748 609.469,378.828C606.253,376.908 603.781,374.364 602.053,371.196C600.997,369.276 600.277,367.068 599.893,364.572C599.509,362.076 599.317,359.34 599.317,356.364L599.317,332.316C599.317,329.34 599.509,326.604 599.893,324.108C600.277,321.612 600.997,319.404 602.053,317.484C603.781,314.316 606.253,311.772 609.469,309.852C612.685,307.932 616.597,306.972 621.205,306.972C624.565,306.972 627.613,307.548 630.349,308.7C633.085,309.852 635.413,311.436 637.333,313.452C641.173,317.772 643.093,323.196 643.093,329.724L643.093,349.884ZM614.005,338.364L628.405,338.364L628.405,330.012C628.405,327.228 627.757,325.14 626.461,323.748C625.165,322.356 623.413,321.66 621.205,321.66C618.997,321.66 617.245,322.356 615.949,323.748C614.653,325.14 614.005,327.228 614.005,330.012L614.005,338.364Z" style="fill:rgb(150,150,150);fill-rule:nonzero;"/>
                    </g>
                    <g transform="matrix(0.883427,0,-0.0113826,0.883427,148.75,1596.48)">
                        <path d="M652.597,332.316C652.597,329.34 652.789,326.604 653.173,324.108C653.557,321.612 654.277,319.404 655.333,317.484C657.061,314.316 659.533,311.772 662.749,309.852C665.965,307.932 669.877,306.972 674.485,306.972C679.093,306.972 683.005,307.932 686.221,309.852C689.437,311.772 691.909,314.316 693.637,317.484C694.693,319.404 695.413,321.612 695.797,324.108C696.181,326.604 696.373,329.34 696.373,332.316L696.373,356.364C696.373,359.34 696.181,362.076 695.797,364.572C695.413,367.068 694.693,369.276 693.637,371.196C691.909,374.364 689.437,376.908 686.221,378.828C683.005,380.748 679.093,381.708 674.485,381.708C669.877,381.708 665.965,380.748 662.749,378.828C659.533,376.908 657.061,374.364 655.333,371.196C654.277,369.276 653.557,367.068 653.173,364.572C652.789,362.076 652.597,359.34 652.597,356.364L652.597,332.316ZM667.285,358.668C667.285,361.452 667.933,363.54 669.229,364.932C670.525,366.324 672.277,367.02 674.485,367.02C676.693,367.02 678.445,366.324 679.741,364.932C681.037,363.54 681.685,361.452 681.685,358.668L681.685,330.012C681.685,327.228 681.037,325.14 679.741,323.748C678.445,322.356 676.693,321.66 674.485,321.66C672.277,321.66 670.525,322.356 669.229,323.748C667.933,325.14 667.285,327.228 667.285,330.012L667.285,358.668Z" style="fill:rgb(150,150,150);fill-rule:nonzero;"/>
                    </g>
                </g>
            </g>
        </g>
    </g>
</svg>
